# xmcd CD Database Entry
#
# Track frame offsets:
# 150
# 13660
# 26757
# 51745
# 62100
# 84060
# 100472
# 114700
# 137707
# 149950
# 167965
# 188200
# 204482
# 221942
#
# Disc length: 3176 seconds
#
# Revision: 2
# Processed by: cddbd v1.4PL0 Copyright (c) Steve Scherf et al.
# Submitted via: tcd 2.0b
#
DISCID=e10c660e
DTITLE=The Andy Poole Quintets - Wailin' with Winker
DYEAR=1900
DGENRE=
TTITLE0=Until I met You
TTITLE1=Beyond the Sea
TTITLE2=God Bless the Child
TTITLE3=It don't mean a thing
TTITLE4=In a mellow tone
TTITLE5=Old Devil Moon
TTITLE6=What is this thing called love
TTITLE7=Desafinado
TTITLE8=Punchbuggy
TTITLE9=Honeysuckle Rose
TTITLE10=You don't know me
TTITLE11=My Romance
TTITLE12=Day By Day
TTITLE13=Wailin' with Winker
EXTD=Rich Bannard\tDrums\nDave Barton\tGuitar\nClyde Forsberg\tTru
EXTD=mpet and Flugelhorn\nSylvain Gagnon\tBass Tracks 1,2,4,7,10,1
EXTD=2\nMartin Newman\tBass Tracks 3,5,6,8,9,11,13,14\nJonathan St
EXTD=ewart\tTenor Sax\nMurray Wilson\tValve Trombone and accompany
EXTD=ing vocals Tracks 5 and 14\nAndy Poole\tVocals
EXTT0=F. Green, D. Wolf
EXTT1=J. Lawrence, C. Trenet
EXTT2=B. Holiday, A. Herzog Jr.
EXTT3=E. Ellington, I. Mills
EXTT4=Duke Ellington
EXTT5=EY Harburg, B. Lane
EXTT6=C. Porter
EXTT7=AC Jobim, N. Mendonca, J. Hendricks, J. Cavanaugh
EXTT8=A. Poole, J. Stewart
EXTT9=T. Walker, A. Razaf
EXTT10=C. Walker, E. Arnold
EXTT11=L. Hart, R. Rodgers
EXTT12=S. Cahn, A. Stordahl, P. Weston
EXTT13=A. Poole
PLAYORDER=
